<?xml version="1.0" encoding="utf-8"?>
<!-- Svg Vector Icons : http://www.onlinewebfonts.com/icon -->
<!DOCTYPE svg PUBLIC "-//W3C//DTD SVG 1.1//EN" "http://www.w3.org/Graphics/SVG/1.1/DTD/svg11.dtd">
<svg version="1.1" xmlns="http://www.w3.org/2000/svg" style="width: 21px; height: 21px;vertical-align: middle;fill: currentColor;overflow: hidden;" xmlns:xlink="http://www.w3.org/1999/xlink" x="0px" y="0px" viewBox="0 0 256 256" enable-background="new 0 0 256 256" xml:space="preserve">
<metadata> Svg Vector Icons : http://www.onlinewebfonts.com/icon </metadata>
<g><g><path fill="#000000" d="M123.3,153.4c2.4,2.4,5.9,4.7,10.6,4.7c3.5,0,7.1-1.2,10.6-4.7l53.1-53.1c2.4-2.4,2.4-5.9,0-8.3c-2.4-2.4-5.9-2.4-8.3,0l-49.6,49.6V18.9c0-3.5-2.4-5.9-5.9-5.9c-3.5,0-5.9,2.3-5.9,5.9v122.7L78.4,92c-2.4-2.4-5.9-2.4-8.3,0s-2.4,5.9,0,8.3L123.3,153.4z"/><path fill="#000000" d="M209.4,36.5c-3.5,0-5.9,2.4-5.9,5.9c0,3.5,2.4,5.9,5.9,5.9c16.5,0,24.8,14.2,24.8,28.3v123.9c0,4.7-1.2,30.7-21.2,30.7H54.8c-16.5,0-33-15.3-33-30.7V76.7c0-15.3,13-28.3,28.3-28.3c3.5,0,5.9-2.4,5.9-5.9c0-3.5-2.4-5.9-5.9-5.9C27.7,36.5,10,54.2,10,76.7v123.9c0,21.2,22.4,42.5,44.8,42.5H213c20.1,0,33-16.5,33-42.5V76.7C246,53.1,230.7,36.5,209.4,36.5z"/></g></g>
</svg>